<svg xmlns="http://www.w3.org/2000/svg" xmlns:xlink="http://www.w3.org/1999/xlink" version="1.1" x="0px" y="0px" viewBox="0 0 512 512" enable-background="new 0 0 512 512" xml:space="preserve"><path fill="#9e9e9e" d="M458.3,226.7h-71.4v-27.2c10.7-14.1,17.1-31.6,17.1-50.7c0-46.4-37.7-84.1-84.1-84.1c-9.1,0-18.1,1.5-26.7,4.4  C282.7,30.2,247.4,2,205.4,2c-41.2,0-76.1,27-87.3,65.1C103,64,86.9,66.4,73.4,73.9c-15.2,8.4-26.3,22.3-31.1,39  c-4.8,16.7-5.1,43.7,14.6,61.8v292.8c0,23.4,19,42.5,42.5,42.5h245.1c23.4,0,42.5-19,42.5-42.5v-29.1c0,0,85.5-67.5,85.5-197.7  C472.4,233,466.1,226.7,458.3,226.7z M358.7,467.5c0,7.8-6.4,14.2-14.2,14.2H99.3c-7.8,0-14.2-6.4-14.2-14.2V193  c10.9,3.5,23,4.1,34.3,1.5c11.6,31.3,41.8,53.2,76.2,53.2c27.7,0,53-14.3,67.8-36.6c15.2,13.9,35.1,21.8,56.4,21.8  c13.6,0,26.9-3.3,38.7-9.5V467.5z M319.9,204.6c-19.6,0-37.4-10.1-47.7-26.9c-2.9-4.8-8.3-7.4-13.9-6.7c-5.5,0.7-10.1,4.7-11.7,10.1  c-6.5,22.6-27.5,38.3-51,38.3c-26.2,0-48.8-19.6-52.5-45.6c-0.7-4.6-3.5-8.5-7.6-10.6c-4.1-2.1-9-2-13.1,0.2  c-11.8,6.4-26.4,5.6-37.5-1.5c-0.3-0.2-25.3-14.3-15.6-41.3c3.3-9.3,9-17.3,17.6-22.1c10.8-5.9,24.3-6,35.2-0.3  c4.2,2.2,9.2,2.2,13.3-0.1c4.1-2.2,6.9-6.4,7.3-11.1c3.1-32.4,29.9-56.9,62.5-56.9c33.8,0,61.3,26.5,62.7,60.3  c0.2,5.1,3.1,9.6,7.6,11.9c4.5,2.3,9.9,2.1,14.1-0.6c9-5.8,19.4-8.9,30.1-8.9c30.8,0,55.8,25.1,55.8,55.8  C375.8,194.3,333.1,204.6,319.9,204.6z M386.9,397.3V254.9l56.9,0C440.8,307.6,420.9,357.2,386.9,397.3z"/></svg>