<svg xmlns="http://www.w3.org/2000/svg" xmlns:xlink="http://www.w3.org/1999/xlink" version="1.1" x="0px" y="0px" viewBox="0 0 100 100" enable-background="new 0 0 100 100" xml:space="preserve"><g><path fill="#9F1EB2" d="M87.8,24.6v27.1c0,7.3-6.4,13.2-13.8,13.2H38c-1.1,3-2.7,4.9-4.6,7c0.7,0.2,1.5,0,2.3,0h30c1.9,8,7,13.8,15,16.1V71.8H84   c6.1,0,10.8-4.2,10.8-10.3V32.8C94.8,28.4,91.8,24.9,87.8,24.6z"/><path fill="#9F1EB2" d="M75,17c1.5,0,2.3,0.4,2.3,2.3v31.7c0,1.9-1,4-2.3,4H35.3h-3.8l-1,3.7c-0.8,2.8-2.6,5.4-5.2,7.5V60v-5h-5h-6.1   c-1.7,0-3.9-2.2-3.9-4V19.3c0-1.4,2.1-2.3,3.9-2.3H75 M75,12H14.1c-4.5,0-8.9,2.8-8.9,7.3v31.7c0,4.5,4.4,9,8.9,9h6.1v14.5   c7-2.3,13.1-7.5,15-14.5H75c4.5,0,7.3-4.5,7.3-9V19.3C82.3,14.8,79.5,12,75,12L75,12z"/></g></svg>