<svg xmlns="http://www.w3.org/2000/svg" xmlns:xlink="http://www.w3.org/1999/xlink" version="1.1" x="0px" y="0px" viewBox="0 0 90 90" style="enable-background:new 0 0 90 90;" xml:space="preserve"><g><g><path fill="#f9fff5" d="M55.142,64.686c-0.275,0-0.547,0.058-0.804,0.179c-0.171,0.078-0.61,0.255-1.626,0.536    c-0.732,0.2-1.365,0.303-1.882,0.303c-1.541,0-1.938-0.307-1.942-0.307c-0.004-0.002-0.216-0.285-0.216-1.301    c0-0.242,0.033-0.829,0.25-2.048c0.178-1.001,0.379-1.88,0.595-2.624l2.872-10.18c0.32-1.056,0.539-2.219,0.654-3.463    c0.112-1.202,0.164-2.044,0.164-2.521c0-2.703-0.975-4.944-2.902-6.668c-1.867-1.657-4.46-2.498-7.711-2.498    c-1.738,0-3.583,0.309-5.488,0.917c-1.777,0.562-3.656,1.244-5.588,2.033c-0.568,0.23-0.989,0.718-1.135,1.311l-0.77,3.159    c-0.168,0.688,0.06,1.414,0.592,1.882c0.354,0.311,0.803,0.475,1.261,0.475c0.228,0,0.462-0.041,0.681-0.126    c0.521-0.199,1.157-0.406,1.871-0.622c0.607-0.179,1.206-0.268,1.771-0.268c1.361,0,1.764,0.238,1.774,0.238    c0.015,0.021,0.224,0.337,0.224,1.358c0,0.597-0.078,1.286-0.224,2.035c-0.167,0.837-0.38,1.731-0.618,2.641l-2.916,10.32    c-0.275,1.155-0.473,2.16-0.6,3.077c-0.126,0.936-0.186,1.865-0.186,2.764c0,2.667,1.001,4.901,2.977,6.638    c1.904,1.68,4.527,2.531,7.797,2.531c2.028,0,3.854-0.279,5.428-0.828c1.403-0.485,3.271-1.187,5.622-2.115    c0.573-0.225,1.004-0.718,1.149-1.316l0.773-3.152c0.175-0.711-0.07-1.461-0.64-1.926C56.005,64.832,55.573,64.686,55.142,64.686z     M54.367,69.743c-2.317,0.915-4.158,1.607-5.543,2.087c-1.38,0.48-2.983,0.723-4.807,0.723c-2.805,0-4.984-0.688-6.54-2.057    c-1.555-1.367-2.329-3.102-2.329-5.208c0-0.816,0.057-1.653,0.172-2.509c0.119-0.852,0.305-1.814,0.562-2.891l2.898-10.242    c0.257-0.982,0.476-1.914,0.65-2.786c0.175-0.878,0.261-1.682,0.261-2.409c0-1.304-0.271-2.219-0.808-2.73    c-0.543-0.517-1.569-0.77-3.095-0.77c-0.748,0-1.518,0.113-2.307,0.344c-0.781,0.236-1.459,0.458-2.017,0.672l0.767-3.159    c1.897-0.772,3.713-1.432,5.446-1.981c1.733-0.552,3.37-0.828,4.915-0.828c2.786,0,4.933,0.673,6.446,2.018    c1.503,1.343,2.263,3.093,2.263,5.244c0,0.445-0.053,1.229-0.156,2.351c-0.104,1.124-0.298,2.15-0.581,3.085l-2.883,10.209    c-0.234,0.816-0.446,1.756-0.636,2.807c-0.187,1.047-0.279,1.848-0.279,2.383c0,1.359,0.301,2.281,0.911,2.771    c0.603,0.493,1.655,0.74,3.151,0.74c0.703,0,1.491-0.126,2.385-0.369c0.885-0.246,1.525-0.462,1.927-0.648L54.367,69.743z"/><path fill="#f9fff5" d="M49,15.402c-2.385,0-4.461,0.809-6.18,2.407c-1.723,1.609-2.634,3.668-2.634,5.951c0,2.316,0.889,4.315,2.645,5.943    c1.716,1.58,3.787,2.379,6.169,2.379c2.384,0,4.453-0.802,6.156-2.385c1.741-1.62,2.627-3.618,2.627-5.938    c0-2.319-0.886-4.321-2.619-5.947C53.46,16.213,51.388,15.402,49,15.402z M53.858,28.302c-1.343,1.252-2.966,1.875-4.858,1.875    c-1.891,0-3.52-0.623-4.878-1.875c-1.347-1.25-2.031-2.764-2.031-4.542c0-1.772,0.685-3.3,2.031-4.559    c1.358-1.265,2.987-1.894,4.878-1.894c1.893,0,3.516,0.628,4.858,1.894c1.343,1.259,2.02,2.787,2.02,4.559    C55.878,25.538,55.201,27.052,53.858,28.302z"/><path fill="#f9fff5" d="M45,0C20.148,0,0,20.147,0,45c0,24.854,20.148,45,45,45s45-20.146,45-45C90,20.147,69.852,0,45,0z M45,88.096    C21.235,88.096,1.905,68.764,1.905,45C1.905,21.237,21.235,1.905,45,1.905c23.766,0,43.096,19.332,43.096,43.095    C88.096,68.764,68.766,88.096,45,88.096z"/></g></g></svg>