<svg xmlns="http://www.w3.org/2000/svg" xmlns:xlink="http://www.w3.org/1999/xlink" version="1.1" x="0px" y="0px" viewBox="0 0 54 54" enable-background="new 0 0 54 54" xml:space="preserve"><g><path fill="#9e9e9e" d="M41.82,0H12.18C5.46,0,0,5.46,0,12.18v29.65C0,48.54,5.46,54,12.18,54h29.65C48.54,54,54,48.54,54,41.82V12.18   C54,5.46,48.54,0,41.82,0z M52,41.82C52,47.44,47.44,52,41.82,52H12.18C6.56,52,2,47.44,2,41.82V12.18C2,6.56,6.56,2,12.18,2h29.65   C47.44,2,52,6.56,52,12.18V41.82z"/><path fill="#9e9e9e" d="M19.92,12h-9.64v28h2.88v-9.2h7.04c1.36,0,2.53-0.25,3.52-0.74c0.99-0.49,1.72-1.07,2.2-1.72   c0.48-0.65,0.86-1.49,1.14-2.52c0.28-1.03,0.45-1.88,0.5-2.56c0.05-0.68,0.08-1.49,0.08-2.42c0-2.64-0.63-4.77-1.9-6.4   C24.47,12.81,22.53,12,19.92,12z M24.74,22.6c-0.01,0.4-0.11,1-0.28,1.8c-0.17,0.8-0.41,1.41-0.72,1.84   c-0.31,0.43-0.79,0.83-1.46,1.2C21.61,27.81,20.8,28,19.84,28h-6.68V14.8h6.52c3.39,0,5.08,2.03,5.08,6.08   C24.76,21.63,24.75,22.2,24.74,22.6z"/><path fill="#9e9e9e" d="M41.22,29.44c-1.05-0.43-2.11-0.81-3.18-1.16c-1.07-0.35-2.03-0.77-2.88-1.28c-0.85-0.51-1.28-1.2-1.28-2.08   c0-0.8,0.34-1.46,1.02-1.98c0.68-0.52,1.71-0.78,3.1-0.78c1.39,0,2.51,0.33,3.36,1l0.92-2.52l-0.48-0.28   c-0.32-0.19-0.85-0.38-1.6-0.58c-0.75-0.2-1.55-0.3-2.4-0.3c-2.43,0-4.18,0.58-5.26,1.74s-1.62,2.41-1.62,3.76s0.49,2.49,1.48,3.42   c0.8,0.8,1.73,1.39,2.78,1.76c1.05,0.37,2.1,0.73,3.14,1.06c1.04,0.33,1.92,0.79,2.64,1.36c0.72,0.57,1.08,1.35,1.08,2.32   s-0.42,1.72-1.26,2.24c-0.84,0.52-1.83,0.78-2.98,0.78s-2.16-0.27-3.04-0.82c-0.88-0.55-1.37-1.31-1.48-2.3l-2.8,0.12   c0.05,1.6,0.73,2.95,2.04,4.04c1.31,1.09,3.11,1.64,5.42,1.64c2.31,0,4.06-0.55,5.26-1.66c1.2-1.11,1.8-2.41,1.8-3.9   c0-1.49-0.37-2.69-1.1-3.6S42.27,29.87,41.22,29.44z"/></g></svg>